<?xml version="1.0" encoding="utf-8"?>

<!DOCTYPE svg PUBLIC "-//W3C//DTD SVG 1.1//EN" "http://www.w3.org/Graphics/SVG/1.1/DTD/svg11.dtd">
<svg version="1.1" id="Layer_1" xmlns="http://www.w3.org/2000/svg" xmlns:xlink="http://www.w3.org/1999/xlink" x="0px" y="0px"
	 viewBox="0 0 1610.775 1665.427" enable-background="new 0 0 1610.775 1665.427" xml:space="preserve" height="40px" width="40px">
<g>
	<path stroke="#000000" d="M834.548,32.707c20.228,14.031,40.502,28.047,59.79,43.381c4.455,3.273,8.334,8.758,14.546,8.137
		c11.682-0.076,24.319-1.258,33.819-8.803c14.667-10.425,30.319-19.713,47.502-25.395c36.441-13.304,77.912-15.773,114.262-0.788
		c23.349,6.879,46.047,16.713,65.73,31.229c2.833,1.803,5.773,5.455,9.455,3.273c31.016-11.94,63.048-21.698,96.004-26.35
		c23.683-3.152,48.76-3.818,71.23,5.546c27.456,10.955,51.305,30.092,68.973,53.699c4.758,7,10.607,13.773,12.925,22.062
		c0.833,12.561-0.773,25.425-5.228,37.229c-3.606,9.606-10.788,19.061-21.44,21.001c-17.91,3.076-36.168,5.303-53.29,11.728
		c-6.818,2.712-13.895,5.894-18.546,11.819c-11.031,14.304-18.501,30.895-28.41,45.926c-5.091,9.819-11.304,19.304-14.864,29.759
		c1.379,10.94,3,21.895,4.894,32.759c3,6.909,8.758,12.182,13.122,18.243c51.684,64.412,108.671,125.505,149.188,197.978
		c27.668,53.411,56.957,106.52,95.08,153.309c9.879,12.879,20.44,25.243,29.85,38.471c-17.334-10.228-33.547-22.258-51.002-32.274
		c4.076,11.697,5.849,24.016,9.394,35.865c5.455,19.849,11.97,39.411,17.046,59.366c-6.788-6.849-11.576-15.349-18.258-22.274
		c2.5,16.864,6.606,33.456,9.152,50.32c-11.804-11.91-23.592-23.834-35.259-35.865c-5.425-5.47-10.576-11.228-16.531-16.122
		c3.243,19.728,7.849,39.547,6.485,59.699c-1.243,21.41-11.804,40.623-21.198,59.396c-7.152,13.622-16.289,26.016-24.744,38.82
		c-4.606,7.334-9.606,14.879-10.819,23.637c-5.106,39.123-10.016,78.276-14.758,117.459c-4.061,31.077-7.682,62.306-14.849,92.867
		c-16.88,60.093-26.638,122.747-53.623,179.553c-8.137,18.819-21.274,34.911-35.259,49.654
		c-19.198,19.895-40.471,37.683-62.851,53.866c-9.334,6.818-15.243,17.016-23.259,25.168c-15.698,16.273-33.501,30.35-51.472,43.987
		c-29.486,22.228-60.442,42.411-92.246,61.109c5.94,16.319,10.485,34.092,5.682,51.335c-67.958,0.379-135.93,0.061-203.887,0.167
		c-16.137-0.258-32.304,0.697-48.396-0.879c-33.32-1.349-66.578-3.864-99.822-6.485c1.621,2.409,3.258,4.818,4.864,7.288
		c-80.912,0.106-161.825,0.167-242.737-0.03c-0.652-3.561-1.333-7.106-1.985-10.637c-16.607-1.652-33.229-3.394-49.896-4.44
		c-19.395-1.379-38.88-0.47-58.26-2.227c1.106,1.742,2.273,3.53,3.455,5.303c-28.804-10.773-58.533-19.41-85.913-33.638
		c-64.897-32.35-118.126-83.837-162.128-140.748c-8.925-12.228-19.395-23.259-27.592-36.002
		c-14.091-22.122-29.971-43.062-43.85-65.321c-27.047-45.744-39.426-98.459-46.517-150.643
		c-8.758-68.169-7.773-137.233-2.015-205.599c3.409-39.562,8.531-78.973,15.046-118.126c8.667-49.366,29.259-96.004,55.942-138.188
		c27.501-43.517,61.306-82.761,98.05-118.687c27.016-26.259,55.73-50.82,86.2-72.988c3.682-3.106,9.288-1.621,12.576-5.455
		c49.32-41.002,102.58-76.837,153.143-116.232c-4.546-8.061-7.273-17.849-4.182-26.91c3.091-3.197,7.167-5.212,10.637-7.97
		c11.076-8.485,20.971-18.577,29.077-29.956c6.5-9,10.379-19.561,13.743-30.062c7.167-22.834,11.637-46.426,18.925-69.23
		c3.455-10.561,7.803-21.425,16.364-28.941c13.258-12.016,31.077-16.379,47.472-22.304c4.167-2.849,6.273-7.864,9.5-11.667
		c14.925-20.834,35.304-36.88,56.23-51.305c9.167-6.197,18.577-12.107,28.319-17.395c0.121-1.273,0.394-3.833,0.515-5.106
		c4.97-0.273,9.743-1.788,14.682-2.318c6.137-0.697,12.304-0.045,18.44,0.424c-10.985,6.334-22.683,11.303-33.547,17.864
		c-34.835,20.137-68.442,45.305-89.185,80.534c2.03-0.545,4.076-1.076,6.121-1.636c13.243-3.833,26.168-8.682,38.896-13.985
		c19.152-7.47,40.32-4.394,59.715,0.47c1.652,0.409,3.303,0.864,4.97,1.349c27.213,8.485,53.169,20.41,80.049,29.85
		c4.515,0.939,2.106,5.349,1.364,8.303c-32.623,101.338-65.003,202.751-97.549,304.103c-5.258,15.986-9.97,32.138-15.546,48.002
		c-13.364,2.167-26.895,3.803-40.456,3.5c-5.712-0.303-11.94-0.682-16.622-4.333c-4.5-3.576-8-8.182-11.607-12.607
		c-17.955-22.622-34.214-46.532-51.654-69.548c-4.955-6.531-9.834-13.122-14.273-20.016c-1.046-1.682-2.03-3.394-2.955-5.121
		c-9.213-17.334-16.895-36.638-32.426-49.426c-7.061-5.864-16.364-7.409-24.213-11.819c-1.727-0.879-3.455-1.742-5.167-2.606
		c-21.349,15.985-42.38,32.41-64.003,48.032c-24.289,17.546-48.381,35.38-71.957,53.881c-20.607,16.152-41.396,32.183-60.124,50.532
		c-7.758,7.47-16.849,13.925-21.925,23.698c-19.91,17.47-37.653,37.395-52.517,59.336c-7.076,10.425-12.016,22.092-19.061,32.532
		c-9.182,14.334-20.592,27.198-33.744,38.002c13.501-2.909,27.016-5.788,40.668-7.955c-18.258,24.698-36.971,49.184-52.684,75.639
		c-10.5,17.531-16.622,37.214-21.713,56.881c-9.122,36.138-14.228,73.155-18.47,110.141c-1.318,12.137-2.743,24.274-3.212,36.486
		c-0.394,7.864,1.636,15.531,2.606,23.274c0.667,4.894,2.106,10.091,6.046,13.395c2.955,2.652,7.091,2.955,10.819,3.788
		c-2.621,10.455-5.485,20.986-10.728,30.486c-7.349,13.001-15.364,25.622-22.471,38.774c10.5-3.712,20.652-8.334,31.138-12.122
		c-5.667,16.97-12.061,33.683-17.819,50.623c9.288-7.319,18.577-14.682,26.956-23.047c1.985-2.015,4.333-3.591,6.803-4.924
		c0.53,6.349-1.288,12.561-4.273,18.092c-5.728,11.895-16.47,20.41-22.062,32.41c-4.288,9.076-8.546,19.122-7.228,29.365
		c0.379,0.697,1.152,2.121,1.53,2.818c17.092-10.788,32.229-24.456,48.699-36.214c-11.016,11.788-21.607,23.956-31.88,36.395
		c-6.728,7.713-12.41,16.849-13.743,27.183c-1.758,12.667,3.091,25.44,11.076,35.168c2.561-9.303,3.303-19.319,8.561-27.668
		c12.107-20.531,27.244-39.092,42.38-57.457c-9.106,22.167-18.546,44.199-26.895,66.669c-3.955,9.864-2.515,20.728-1.227,30.986
		c3.818,24.819,11.364,49.123,22.546,71.624c9.076,18.713,23.334,34.107,36.305,50.138
		c43.578,51.729,88.594,102.216,133.581,152.718c12.743,13.91,24.774,28.516,38.092,41.88c-6.015-0.167-11.894-1.409-17.576-3.303
		c26.274,14.516,56.745,19.955,86.534,19.622c20.637-0.349,41.199,1.849,61.73,3.651c7.516,0.546,15.031,1.243,22.456,2.561
		c0.879,3.288,1.788,6.591,2.682,9.91c71.548,0.394,143.112,0.212,214.675,0.091c-0.924-2.924-1.833-5.833-2.727-8.728
		c40.32,2.288,80.534,6.516,120.914,7.773c14.152-0.167,28.259,1.379,42.426,1.349c58.078-0.515,116.156-0.197,174.234-0.288
		c7.818-0.182,15.773,0.879,23.547-0.546c2.879-0.182,2.379-3.121,2.545-5.167c0.288-14.289-5.576-27.622-10.394-40.759
		c47.305-27.516,93.246-57.836,134.566-93.852c13.213-11.455,24.243-25.092,35.426-38.456c1.455-4.409-1.833-9.137-2.258-13.622
		c-3.091-38.79-5.182-77.655-8.349-116.444c-1.561-21.774-1.924-43.699,0.53-65.427c1.621-14.273,3.606-29.092,11.228-41.578
		c5.909-10.076,15.652-16.849,24.577-23.986c10.106-7.682,17.819-17.895,24.44-28.607c14.94-22.44,22.349-48.684,28.228-74.7
		c2.03-9.985,6.212-19.365,11.5-28.031c12.485-20.668,28.41-38.987,44.669-56.745c11.91-12.834,24.183-25.365,37.047-37.259
		c2.349-2.227,4.803-4.546,5.834-7.728c0.848,1.636,1.712,3.258,2.606,4.909c7.44-23.956,25.728-42.002,36.88-64.048
		c7.243-14.41,15.273-28.713,18.94-44.562c4.136-17.622,1.167-35.865-1.788-53.426c-2.379-15.334-7.122-30.198-9.273-45.578
		c18.167,15.804,33.486,34.607,51.714,50.335c-1.924-19.046-6.713-37.638-10.516-56.336c4.121,4.455,8.122,9.031,12.167,13.561
		c-1.424-6.985-3.273-13.879-5.046-20.789c-2.273-8.713-3.546-17.773-7.394-26.001c-5.379-11.758-13.637-21.865-19.774-33.198
		c12.319,6.122,22.895,15.182,35.289,21.183c-5.47-9.091-12.455-17.152-18.334-25.971c-15.94-23.334-30.638-47.517-44.38-72.215
		c-12.091-21.001-21.955-43.214-34.729-63.821c-42.275-69.503-98.428-128.854-148.461-192.584
		c-7.561-8.834-7.016-21.061-8.925-31.85c-0.879-6.076-2.03-12.091-3.197-18.092c-1.349,1.803-2.652,3.621-3.955,5.455
		c-0.409,0.576-1.243,1.712-1.652,2.288c-14.288-53.881-33.365-107.035-62.503-154.809c-8.682-13.713-17.486-27.577-29.077-39.062
		c-2.985-4.985-5.44-10.531-10.121-14.182c-17.986-13.773-38.608-23.789-60.154-30.622c-12.546-3.909-24.925-8.712-37.956-10.713
		c-24.789-3.394-50.154-0.409-73.837,7.44c-17.834,5.137-34.319,14.076-49.078,25.213c-11.516,8.909-26.546,11.607-40.789,11.258
		c-10.273-0.273-16.789-9.197-24.456-14.743c-11.94-8.879-23.637-18.183-36.426-25.819c0.939,9.697,2.909,19.243,4.243,28.895
		c-15.834-8.849-30.077-21.395-47.926-26.016c-23.062-3.697-46.381,1.364-68.912,6.091c-7.167,1.576-14.258,3.44-21.152,5.864
		c8.303,3.288,17.258,2.818,26.001,2.546c4.349-0.424,7.894,2.349,11.182,4.788c-22.91,3.606-45.714,8.046-68.321,13.182
		c-0.061,1.167-0.167,3.47-0.227,4.637c6.455-0.894,12.849-2.333,19.364-2.652c7.031-0.288,13.728,2.227,20.168,4.743
		c-10.031,5.788-20.971,9.773-31.229,15.122c-3.364,1.621-5.849,4.47-8.076,7.364c-0.818-4.046-2.076-7.985-3.318-11.925
		c1.985-1.379,3.97-2.773,5.94-4.243c-3.909-3.046-9.076-1.773-13.622-2.076c-25.38-0.409-50.775-0.455-76.139-1.182
		c32.88-8.485,66.548-13.788,99.231-23.031c-7.667-2.303-15.682-3.076-23.319-5.485c28.244-7.909,56.154-17.38,85.201-21.925
		c15.455-2.455,31.304-4.121,46.881-1.833c13.561,1.909,24.456,10.834,36.305,16.91C838.018,53.087,835.806,42.98,834.548,32.707
		 M1423.194,1031.43c-3.727,29.789-7.031,59.669-12.531,89.216c-5.621,30.456-11.015,61.033-19.804,90.761
		c-9.728,36.062-21.607,71.503-32.153,107.323c-3.44,12.152-8.728,23.622-13.213,35.395c5.864-7.455,9.319-16.364,13.182-24.91
		c22.713-53.26,31.501-110.883,47.381-166.264c8.228-37.441,12.167-75.655,16.849-113.656c1.303-14.773,4.5-29.456,4.046-44.335
		C1424.876,1013.642,1424.527,1022.612,1423.194,1031.43 M125.322,1386.748c2.742,8.334,8.546,15.061,13.167,22.364
		c5.743,7.97,11.455,16.274,19.38,22.289c-4.5-8.955-11.243-16.455-16.91-24.637
		C135.747,1400.097,131.838,1392.324,125.322,1386.748z"/>
	<path fill="#1E1E1E" stroke="#1E1E1E" d="M997.767,57.663c23.683-7.849,49.047-10.834,73.837-7.44
		c13.031,2,25.41,6.803,37.956,10.713c21.546,6.834,42.168,16.849,60.154,30.622c4.682,3.652,7.137,9.197,10.121,14.182
		c-16.379-13.682-34.304-25.713-54.184-33.683c-29.562-12.319-62.109-16.304-93.928-13.91c-19.546,1.742-39.683,4.652-57.017,14.425
		c-17.334,9.531-33.289,21.334-50.275,31.456c-9.591,5.879-21.062,7.197-32.077,7.44c-34.971,0.833-69.715-4.424-104.625-5.364
		c-9.182-0.879-16.213,5.849-22.228,11.773c-14.622,14.925-26.895,31.941-39.077,48.85c-7.773,11.213-15.849,22.243-22.683,34.047
		c-1.667-0.485-3.318-0.939-4.97-1.349c13.001-20.471,26.956-40.35,41.699-59.609c8.637-10.955,17.425-21.925,27.971-31.138
		c4.94-4.258,10.925-8.273,17.789-7.622c31.895,0.712,63.578,5.197,95.474,5.561c14.561-0.061,30.441,0.212,42.956-8.394
		c-10.076,0.318-21.955,3.273-30.441-3.818c-13.137-11.334-27.289-21.425-41.426-31.471c1.439,10.273,3.47,20.455,4.879,30.729
		c-10.425-7.576-20.955-15.031-32.107-21.516c-8.394-4.818-16.804-10.561-26.743-11.394c-18.592-1.985-37.229,1.318-55.427,4.834
		c7.394,3,13.379,8.606,16.834,15.819c-15.895-0.742-31.486,2.667-46.881,6.152c9.076,2.576,18.152,5.318,26.713,9.349
		c-13.349,1.485-25.425,7.288-37.229,13.319c11.894,0.212,23.804,0.864,35.577,2.591c-26.198,10.682-51.608,23.471-75.094,39.305
		c-15.137,10.288-29.88,21.395-42.577,34.638c-7.576,8.152-14.107,17.167-20.577,26.183c-2.045,0.561-4.091,1.091-6.121,1.636
		c20.743-35.229,54.351-60.396,89.185-80.534c10.864-6.561,22.562-11.531,33.547-17.864c-6.137-0.47-12.304-1.121-18.44-0.424
		c-4.94,0.53-9.713,2.046-14.682,2.318l-1.515,0.061c2.227-2.894,4.712-5.743,8.076-7.364c10.258-5.349,21.198-9.334,31.229-15.122
		c-6.44-2.515-13.137-5.031-20.168-4.743c-6.516,0.318-12.91,1.758-19.364,2.652c0.061-1.167,0.167-3.47,0.227-4.637
		c22.607-5.137,45.411-9.576,68.321-13.182c-3.288-2.439-6.834-5.212-11.182-4.788c-8.743,0.273-17.698,0.742-26.001-2.546
		c6.894-2.424,13.985-4.288,21.152-5.864c22.531-4.727,45.85-9.788,68.912-6.091c17.849,4.621,32.092,17.167,47.926,26.016
		c-1.333-9.652-3.303-19.198-4.243-28.895c12.788,7.637,24.486,16.94,36.426,25.819c7.667,5.546,14.182,14.47,24.456,14.743
		c14.243,0.348,29.274-2.349,40.789-11.258C963.448,71.739,979.933,62.799,997.767,57.663z"/>
	<path fill="#9A653B" stroke="#9A653B" d="M974.706,72.573c17.334-9.773,37.471-12.682,57.017-14.425
		c31.82-2.394,64.366,1.591,93.928,13.91c19.88,7.97,37.805,20.001,54.184,33.683c11.591,11.485,20.395,25.35,29.077,39.062
		c29.138,47.775,48.214,100.928,62.503,154.809c0.409-0.576,1.242-1.712,1.652-2.288c2.939,11.652,4.515,23.607,5.652,35.562
		c-8.546-7.228-15.577-15.97-23.046-24.228c-32.941-37.138-66.488-74.2-105.777-104.792c-13.591-10.561-27.956-20.213-43.396-27.88
		c-12.122-5.97-24.94-10.319-37.289-15.773c-29.183-12.44-57.381-27.122-86.928-38.699c-12.667-4.53-26.153-9.394-39.79-7.046
		c-9.652,1.727-16.289,10.303-18.667,19.364c-7.758,26.789-12.682,55.184-8.061,82.988c3.485,21.395,13.667,41.805,29.622,56.624
		c16.91,15.455,35.289,29.289,51.638,45.366c13.485,13.137,25.168,28.244,33.501,45.184c8.531,16.561,13.561,34.562,19.122,52.26
		c11.076,35.774,21.592,71.7,31.608,107.777c2.727,9.167,4.5,18.789,9.212,27.213c2.697,5.015,7.637,8.106,12.288,11.091
		c-5.106,11.682-12.379,22.213-18.652,33.259c-26.441,44.684-58.412,86.807-75.912,136.172c-6.182,17.001-9.364,34.88-14.455,52.199
		c-4.212,15.44-9.44,30.971-9.122,47.169c0.045,14.395,4.743,28.244,10.228,41.396c4.546,10.561,9.47,21.183,16.895,30.077
		c11.197,13.758,26.031,23.819,40.608,33.653c7.516,5.455,16.122,10.712,20.122,19.486c3.379,8.591-2.091,17.379-7.212,24.001
		c-12.44,14.985-27.774,27.531-44.593,37.289c-24.774,14.273-53.078,20.622-78.261,33.986c-11,5.697-21.349,12.637-30.91,20.516
		c-11.697,9.425-21.455,20.94-32.835,30.729c-14.698,13.303-31.001,24.622-46.653,36.729c-8.758,7-18.183,15.334-19.834,27.077
		c-1.697,13.652,5.455,26.259,12.394,37.426c12.319,19.364,31.729,32.319,50.214,45.168c11.622,8.334,24.243,17.425,29.213,31.486
		c4.773,14.319-0.197,29.592-6.227,42.729c-7.425,17.077-19.622,31.668-34.062,43.259c-19.986,16.107-43.517,27.229-67.776,35.229
		c-31.926,10.167-65.503,15.38-99.034,14.758c-25.91-0.333-52.078-3.94-76.382-13.198c-42.684-17.031-80.306-46.729-106.11-84.822
		c-28.274-41.411-43.729-90.049-53.714-138.778c-10.5-51.472-17.804-103.565-23.107-155.809
		c-5.758-59.821-9.834-120.126-5.424-180.189c1.697-20.865,4.334-41.82,10.47-61.896c26.228-85.473,52.29-171.007,80.609-255.814
		c4.5-12.607,8.288-25.547,14.213-37.592c4.44,6.894,9.318,13.485,14.273,20.016c17.44,23.016,33.698,46.926,51.654,69.548
		c3.606,4.424,7.106,9.031,11.607,12.607c4.682,3.652,10.91,4.03,16.622,4.333c13.561,0.303,27.092-1.333,40.456-3.5
		c5.576-15.864,10.288-32.016,15.546-48.002c32.547-101.353,64.927-202.766,97.549-304.103c0.742-2.955,3.152-7.364-1.364-8.303
		c-26.88-9.44-52.836-21.365-80.049-29.85c6.833-11.804,14.91-22.834,22.683-34.047c12.182-16.91,24.456-33.926,39.077-48.85
		c6.015-5.924,13.046-12.652,22.228-11.773c34.91,0.939,69.654,6.197,104.625,5.364c11.016-0.242,22.486-1.561,32.077-7.44
		C941.416,93.907,957.372,82.103,974.706,72.573 M914.203,362.448c-25.244,4.409-46.063,23.38-56.396,46.32
		c-11.728,25.789-11.667,56.699,0.182,82.443c8,17.531,21.88,32.683,39.532,40.759c16.213,7.622,35.471,8.303,52.214,1.985
		c17.213-6.318,31.41-19.531,40.486-35.305c14.44-24.804,16.652-56.048,6.864-82.928c-7.031-19.561-20.955-37.077-39.638-46.593
		C944.28,362.236,928.825,359.903,914.203,362.448z"/>
	<path fill="#FFFFFF" stroke="#FFFFFF" d="M743.393,65.587c18.198-3.515,36.835-6.818,55.427-4.834
		c9.94,0.833,18.349,6.576,26.743,11.394c11.152,6.485,21.683,13.94,32.107,21.516c-1.409-10.273-3.44-20.455-4.879-30.729
		c14.137,10.046,28.289,20.137,41.426,31.471c8.485,7.091,20.365,4.137,30.441,3.818c-12.516,8.606-28.395,8.334-42.956,8.394
		c-31.895-0.364-63.578-4.849-95.474-5.561c-6.864-0.652-12.849,3.364-17.789,7.622c-10.546,9.213-19.334,20.183-27.971,31.138
		c-14.743,19.258-28.698,39.138-41.699,59.609c-19.395-4.864-40.562-7.94-59.715-0.47c-12.728,5.303-25.653,10.152-38.896,13.985
		c6.47-9.016,13.001-18.031,20.577-26.183c12.698-13.243,27.44-24.35,42.577-34.638c23.486-15.834,48.896-28.622,75.094-39.305
		c-11.773-1.727-23.683-2.379-35.577-2.591c11.803-6.031,23.88-11.834,37.229-13.319c-8.561-4.03-17.637-6.773-26.713-9.349
		c15.395-3.485,30.986-6.894,46.881-6.152C756.773,74.194,750.787,68.588,743.393,65.587z"/>
	<path fill="#1F1F1E" stroke="#1F1F1E" d="M923.825,133.833c2.379-9.061,9.015-17.637,18.667-19.364
		c13.637-2.349,27.122,2.515,39.79,7.046c29.547,11.576,57.745,26.259,86.928,38.699c12.349,5.455,25.168,9.803,37.289,15.773
		c15.44,7.667,29.804,17.319,43.396,27.88c39.29,30.592,72.836,67.654,105.777,104.792c7.47,8.258,14.5,17.001,23.046,24.228
		c-1.136-11.955-2.712-23.91-5.652-35.562c1.303-1.833,2.606-3.652,3.955-5.455c1.167,6,2.318,12.016,3.197,18.092
		c1.909,10.788,1.364,23.016,8.925,31.85c50.032,63.73,106.186,123.081,148.461,192.584c12.773,20.607,22.637,42.82,34.729,63.821
		c13.743,24.698,28.441,48.881,44.38,72.215c5.879,8.819,12.864,16.88,18.334,25.971c-12.395-6-22.971-15.061-35.289-21.183
		c6.137,11.334,14.395,21.44,19.774,33.198c3.849,8.228,5.121,17.289,7.394,26.001c1.773,6.909,3.621,13.804,5.046,20.789
		c-4.046-4.53-8.046-9.106-12.167-13.561c3.803,18.698,8.591,37.289,10.516,56.336c-18.228-15.728-33.547-34.532-51.714-50.335
		c2.151,15.379,6.894,30.244,9.273,45.578c2.955,17.561,5.924,35.805,1.788,53.426c-3.667,15.849-11.697,30.153-18.94,44.562
		c-11.152,22.046-29.441,40.093-36.88,64.048c-0.894-1.652-1.758-3.273-2.606-4.909c4.394-15.198,14.213-27.85,22.91-40.789
		c6.273-9.106,12.016-18.592,16.88-28.531c5.591-11.455,11.379-23.001,14.41-35.456c2.833-11.697,2.015-23.865,0.606-35.698
		c-3.546-26.789-10.622-52.911-16.819-79.155c18.637,18.152,36.335,37.259,55.002,55.381c-3.682-18.395-5.622-37.517-13.895-54.608
		c-5.167-12.016-14.395-21.486-21.971-31.926c0.758-0.924,2.273-2.788,3.031-3.712c11.94,12.122,19.743,27.516,31.092,40.168
		c-2.03-8.834-3.076-18.061-7.318-26.198c-9.804-19.031-22.925-36.032-35.108-53.548c13.031,7.667,25.441,16.349,38.229,24.425
		c-17.213-24.592-33.047-50.154-47.714-76.336c-13.591-23.531-24.713-48.411-39.168-71.442
		c-42.502-68.397-98.216-127.02-147.476-190.341c-3.485-3.182-8.197-4.773-11.334-8.394c-16.334-17.046-31.426-35.214-47.517-52.457
		c-21.062-22.865-42.971-45.047-66.866-64.972c-15.682-12.985-32.229-25.092-50.29-34.547c-10.591-5.576-21.91-9.5-32.88-14.198
		c-23.971-10.031-47.366-21.319-71.048-31.971c-14.319-6.288-28.713-12.758-44.062-16.107c-7.379-1.424-15.622-2.091-22.425,1.682
		c-6.137,3.5-8.591,10.591-10.364,17.001c-7.137,25.789-11.531,53.139-6.53,79.746c3.606,19.652,13.455,38.153,28.183,51.714
		c17.001,15.349,35.289,29.259,51.623,45.35c14.319,14.001,26.501,30.259,35.153,48.366c8.258,16.637,13.167,34.623,18.743,52.275
		c12.167,39.305,23.592,78.821,34.547,118.475c1.606,5.576,3.318,11.273,6.697,16.076c2.758,4.046,7.788,5.409,11.349,8.576
		c1.743,3.773-1.152,7.758-2.652,11.152c-12.364,21.713-25.395,43.047-38.82,64.109c-18.258,28.956-36.956,57.957-49.608,89.913
		c-8.622,20.713-12.395,42.926-18.728,64.351c-4.455,16.122-9.834,32.698-7.622,49.654c2.212,17.076,9.409,33.017,17.122,48.244
		c10.864,20.395,30.592,33.501,49.199,46.153c8.788,6.273,19.061,12.985,21.728,24.198c2.227,10.425-4,20.122-10.318,27.804
		c-13.667,15.849-30.335,29.077-48.714,39.047c-24.077,13.061-51.108,19.395-75.261,32.289
		c-11.955,6.288-23.107,14.076-33.274,22.971c-8.091,7.016-15.243,15.016-23.137,22.259c-12.849,12.046-26.834,22.819-41.017,33.259
		c-9.061,6.955-18.94,13.425-25.577,22.925c-4.591,6.364-4.864,14.819-2.409,22.077c7.091,20.986,22.289,38.305,40.093,51.093
		c14.743,11.41,31.941,20.289,43.578,35.259c8.985,11.288,10.713,26.819,7.031,40.487c-5.182,19.516-15.379,37.774-29.562,52.199
		c-15.288,15.819-34.229,27.698-54.123,36.835c-30.259,13.728-63.018,21.486-96.034,24.516c-30.516,2.621-61.639,1.333-91.383-6.394
		c-19.834-5.046-38.365-14.228-55.79-24.819c-24.531-15.046-46.199-34.714-63.578-57.654c-20.41-26.759-34.986-57.548-45.608-89.367
		c-13.243-39.835-20.455-81.306-27.153-122.641c-9.455-61.29-16.061-123.051-18.577-185.023
		c-1.394-40.274-1.47-80.821,4.273-120.793c3.485-25.774,12.985-50.138,20.152-75.003c20.88-68.139,41.987-136.218,64.397-203.872
		c6.091-17.243,11.122-34.956,18.955-51.517c0.924,1.727,1.909,3.44,2.955,5.121c-5.925,12.046-9.713,24.986-14.213,37.592
		c-28.319,84.807-54.381,170.34-80.609,255.814c-6.137,20.077-8.773,41.032-10.47,61.896c-4.409,60.063-0.333,120.369,5.424,180.189
		c5.303,52.245,12.607,104.338,23.107,155.809c9.985,48.729,25.44,97.368,53.714,138.778c25.804,38.093,63.427,67.791,106.11,84.822
		c24.304,9.258,50.472,12.864,76.382,13.198c33.532,0.621,67.109-4.591,99.034-14.758c24.259-8,47.79-19.122,67.776-35.229
		c14.44-11.591,26.637-26.183,34.062-43.259c6.031-13.137,11-28.41,6.227-42.729c-4.97-14.061-17.591-23.152-29.213-31.486
		c-18.486-12.849-37.895-25.804-50.214-45.168c-6.94-11.167-14.092-23.774-12.394-37.426c1.651-11.743,11.076-20.077,19.834-27.077
		c15.652-12.107,31.956-23.425,46.653-36.729c11.379-9.788,21.137-21.304,32.835-30.729c9.561-7.879,19.91-14.819,30.91-20.516
		c25.183-13.364,53.487-19.713,78.261-33.986c16.819-9.758,32.153-22.304,44.593-37.289c5.121-6.622,10.591-15.41,7.212-24.001
		c-4-8.773-12.606-14.031-20.122-19.486c-14.576-9.834-29.41-19.895-40.608-33.653c-7.425-8.894-12.349-19.516-16.895-30.077
		c-5.485-13.152-10.182-27.001-10.228-41.396c-0.318-16.198,4.909-31.729,9.122-47.169c5.091-17.319,8.273-35.198,14.455-52.199
		c17.501-49.366,49.472-91.489,75.912-136.172c6.273-11.046,13.546-21.577,18.652-33.259c-4.652-2.985-9.591-6.076-12.288-11.091
		c-4.712-8.425-6.485-18.046-9.212-27.213c-10.016-36.077-20.531-72.003-31.608-107.777c-5.561-17.698-10.591-35.698-19.122-52.26
		c-8.334-16.94-20.016-32.047-33.501-45.184c-16.349-16.076-34.729-29.91-51.638-45.366c-15.955-14.819-26.137-35.229-29.622-56.624
		C911.143,189.017,916.067,160.622,923.825,133.833z"/>
	<path fill="#FFFFFF" stroke="#FFFFFF" d="M937.507,121.62c6.803-3.773,15.046-3.106,22.425-1.682
		c15.349,3.349,29.744,9.819,44.062,16.107c23.683,10.652,47.078,21.94,71.048,31.971c10.97,4.697,22.289,8.622,32.88,14.198
		c18.061,9.455,34.607,21.562,50.29,34.547c23.895,19.925,45.805,42.108,66.866,64.972c16.092,17.243,31.183,35.411,47.517,52.457
		c3.137,3.621,7.849,5.212,11.334,8.394c49.26,63.321,104.974,121.944,147.476,190.341c14.455,23.031,25.577,47.911,39.168,71.442
		c14.667,26.183,30.501,51.745,47.714,76.336c-12.788-8.076-25.198-16.758-38.229-24.425c12.182,17.516,25.304,34.517,35.108,53.548
		c4.242,8.137,5.288,17.364,7.318,26.198c-11.349-12.652-19.152-28.047-31.092-40.168c-0.758,0.924-2.273,2.788-3.031,3.712
		c7.576,10.44,16.804,19.91,21.971,31.926c8.273,17.092,10.213,36.214,13.895,54.608c-18.668-18.122-36.365-37.229-55.002-55.381
		c6.197,26.244,13.273,52.366,16.819,79.155c1.409,11.834,2.227,24.001-0.606,35.698c-3.03,12.455-8.819,24.001-14.41,35.456
		c-4.864,9.94-10.607,19.425-16.88,28.531c-8.697,12.94-18.516,25.592-22.91,40.789c-1.031,3.182-3.485,5.5-5.834,7.728
		c-12.864,11.894-25.137,24.425-37.047,37.259c-16.258,17.758-32.183,36.077-44.669,56.745c-5.288,8.667-9.47,18.046-11.5,28.031
		c-5.879,26.016-13.288,52.26-28.228,74.7c-6.622,10.713-14.334,20.925-24.44,28.607c-8.925,7.137-18.668,13.91-24.577,23.986
		c-7.622,12.485-9.607,27.304-11.228,41.578c-2.455,21.728-2.091,43.653-0.53,65.427c3.167,38.79,5.258,77.655,8.349,116.444
		c0.121,3.03,0.409,6.106,0.136,9.167c-3.591,5.031-8.455,9.016-12.198,13.94c-13.379,17.379-30.683,31.153-47.684,44.775
		c-34.88,27.198-71.836,51.76-110.368,73.458c-6.137-11.516-11.743-23.865-21.94-32.441c-21.319-18.546-51.017-28.471-79.125-23.259
		c-21.001,3.894-39.168,17.38-51.669,34.335c-16.273,22.258-32.35,44.653-48.547,66.957c-51.729-0.545-103.322-5.091-154.825-9.228
		c-7.167-7.546-12.379-16.788-18.789-24.971c-9.955-13.288-19.001-27.274-29.683-39.986c-14.97-17.319-37.153-28.728-60.29-28.531
		c-18.395-0.061-36.592,5.697-52.154,15.379c-9.713,6.152-18.758,13.849-24.622,23.88c-9.788,16.576-18.304,34.274-21.88,53.351
		c-22.183-1.576-44.259-4.515-66.503-5.394c-17.455-1.03-35.047,0.212-52.381-2.47c-12.44-1.53-24.319-5.591-36.259-9.197
		c-13.319-13.364-25.35-27.971-38.092-41.88c-44.987-50.502-90.004-100.989-133.581-152.718
		c-12.97-16.031-27.228-31.426-36.305-50.138c-11.182-22.501-18.728-46.805-22.546-71.624c-1.288-10.258-2.727-21.122,1.227-30.986
		c8.349-22.471,17.789-44.502,26.895-66.669c-15.137,18.364-30.274,36.926-42.38,57.457c-5.258,8.349-6,18.364-8.561,27.668
		c-7.985-9.728-12.834-22.501-11.076-35.168c1.333-10.334,7.015-19.47,13.743-27.183c10.273-12.44,20.865-24.607,31.88-36.395
		c-16.47,11.758-31.607,25.425-48.699,36.214c-0.379-0.697-1.152-2.121-1.53-2.818c-1.318-10.243,2.94-20.289,7.228-29.365
		c5.591-12,16.334-20.516,22.062-32.41c2.985-5.531,4.803-11.743,4.273-18.092c-2.47,1.333-4.818,2.909-6.803,4.924
		c-8.379,8.364-17.667,15.728-26.956,23.047c5.758-16.94,12.152-33.653,17.819-50.623c-10.485,3.788-20.637,8.41-31.138,12.122
		c7.106-13.152,15.122-25.774,22.471-38.774c5.243-9.5,8.106-20.031,10.728-30.486c-3.727-0.833-7.864-1.136-10.819-3.788
		c-3.94-3.303-5.379-8.5-6.046-13.395c-0.97-7.743-3-15.41-2.606-23.274c0.47-12.213,1.894-24.35,3.212-36.486
		c4.243-36.986,9.349-74.003,18.47-110.141c5.091-19.667,11.213-39.35,21.713-56.881c15.713-26.456,34.426-50.941,52.684-75.639
		c-13.652,2.167-27.168,5.046-40.668,7.955c13.152-10.803,24.562-23.668,33.744-38.002c7.046-10.44,11.985-22.107,19.061-32.532
		c14.864-21.94,32.607-41.865,52.517-59.336c41.078-36.077,83.655-70.442,127.672-102.883c24.41-18.016,49.123-35.608,73.109-54.199
		c7.485-5.44,14.334-11.819,22.395-16.455c7.849,4.409,17.152,5.955,24.213,11.819c15.531,12.788,23.213,32.092,32.426,49.426
		c-7.834,16.561-12.864,34.274-18.955,51.517c-22.41,67.654-43.517,135.733-64.397,203.872
		c-7.167,24.865-16.667,49.229-20.152,75.003c-5.743,39.971-5.667,80.518-4.273,120.793c2.515,61.972,9.122,123.732,18.577,185.023
		c6.697,41.335,13.91,82.806,27.153,122.641c10.622,31.819,25.198,62.609,45.608,89.367c17.38,22.94,39.047,42.608,63.578,57.654
		c17.425,10.591,35.956,19.774,55.79,24.819c29.744,7.728,60.866,9.016,91.383,6.394c33.016-3.03,65.775-10.788,96.034-24.516
		c19.895-9.137,38.835-21.016,54.123-36.835c14.182-14.425,24.38-32.683,29.562-52.199c3.682-13.667,1.954-29.198-7.031-40.487
		c-11.637-14.97-28.834-23.849-43.578-35.259c-17.804-12.788-33.001-30.107-40.093-51.093c-2.455-7.258-2.182-15.713,2.409-22.077
		c6.637-9.5,16.516-15.97,25.577-22.925c14.182-10.44,28.168-21.213,41.017-33.259c7.894-7.243,15.046-15.243,23.137-22.259
		c10.167-8.894,21.319-16.682,33.274-22.971c24.153-12.895,51.184-19.228,75.261-32.289c18.38-9.97,35.047-23.198,48.714-39.047
		c6.318-7.682,12.546-17.379,10.318-27.804c-2.667-11.213-12.94-17.925-21.728-24.198c-18.607-12.652-38.335-25.759-49.199-46.153
		c-7.713-15.228-14.91-31.168-17.122-48.244c-2.212-16.955,3.167-33.532,7.622-49.654c6.333-21.425,10.107-43.638,18.728-64.351
		c12.652-31.956,31.35-60.957,49.608-89.913c13.425-21.061,26.456-42.396,38.82-64.109c1.5-3.394,4.394-7.379,2.652-11.152
		c-3.561-3.167-8.591-4.531-11.349-8.576c-3.379-4.803-5.091-10.5-6.697-16.076c-10.955-39.653-22.38-79.17-34.547-118.475
		c-5.576-17.652-10.485-35.638-18.743-52.275c-8.652-18.107-20.834-34.365-35.153-48.366c-16.334-16.092-34.623-30.001-51.623-45.35
		c-14.728-13.561-24.577-32.062-28.183-51.714c-5-26.607-0.606-53.957,6.53-79.746C928.916,132.211,931.371,125.12,937.507,121.62
		 M1292.294,587.109c-24.44,22.516-46.744,47.199-69.457,71.412c-12.182,12.546-19.001,29.668-20.774,46.926
		c-1.197,11.894,0.879,24.91,9.349,33.926c15.758,17.667,34.865,31.895,52.835,47.184c10.076,8.515,20.577,16.773,28.653,27.334
		c8.273,10.182,13.516,22.789,23.865,31.229c1.091,8.379,0.182,16.925,0.303,25.365c-0.546,20.167-1.424,40.471-5.606,60.26
		c-3.364,13.516-6.849,27.062-12.016,40.017c1.258,1.227,2.546,2.455,3.849,3.712c-9.334,0.879-18.955,0.985-27.971-1.849
		c-18.41-5.788-38.153-6.076-57.108-3.243c-10.5,1.803-21.289,4.303-30.244,10.334c-8.985,7.015-16.789,15.364-24.577,23.622
		c9.303-4.379,19.622-0.364,27.713,4.803c15.288,9.94,33.138,15.758,51.275,17.47c13.273,1.136,27.819-0.273,38.441-9.122
		c13.47-9.137,22.516-22.91,34.032-34.123c6.728-6.712,15.016-11.47,23.016-16.486c-10.288,3.288-20.637,6.546-31.335,8.152
		c0.773-8.182,5.046-15.637,6.682-23.683c10.515-33.607,10.455-69.215,10.606-104.065c2.833-2.546,6.924-3.227,10.046-5.47
		c11.743-7.728,22.046-17.364,33.123-25.971c27.213-21.38,44.335-52.76,56.229-84.67c4.606-13.288,3.561-27.728,1.864-41.426
		c-2.455-16.44-6.879-33.016-16.061-47.047c-5.046-7.94-12.895-13.364-19.804-19.531c-14.425-12.137-29.198-24.092-45.745-33.229
		c-9.682-5.227-20.274-9.697-31.441-9.652C1304.75,579.23,1297.583,582.139,1292.294,587.109 M1347.403,960.276
		c-1.53-0.167-4.5,2.242-2.046,3.197C1347.645,964.412,1351.691,959.579,1347.403,960.276z"/>
	<path stroke="#000000" d="M914.203,362.448c14.622-2.546,30.077-0.212,43.244,6.682c18.683,9.516,32.607,27.031,39.638,46.593
		c9.788,26.88,7.576,58.124-6.864,82.928c-9.076,15.773-23.274,28.986-40.486,35.305c-16.743,6.318-36.002,5.637-52.214-1.985
		c-17.652-8.076-31.532-23.228-39.532-40.759c-11.849-25.743-11.91-56.654-0.182-82.443
		C868.141,385.828,888.96,366.857,914.203,362.448 M945.871,417.981c-6.94,1.455-13.334,5.652-17.016,11.788
		c-9.182,13.743-5.591,35.168,9.152,43.593c10.122,6.349,24.319,3.409,31.804-5.667c6.349-8.091,9.137-19.122,6.091-29.092
		C972.554,425.89,959.493,414.844,945.871,417.981z"/>
	<path fill="#1D1D1D" stroke="#1D1D1D" d="M945.871,417.981c13.622-3.137,26.683,7.909,30.032,20.622
		c3.046,9.97,0.257,21.001-6.091,29.092c-7.485,9.076-21.683,12.016-31.804,5.667c-14.743-8.425-18.334-29.85-9.152-43.593
		C932.537,423.633,938.932,419.435,945.871,417.981 M946.083,423.057c-13.031,2.833-20.38,17.895-17.092,30.319
		c2.258,11.182,13.531,20.546,25.198,18.077c13.773-2.561,21.486-18.774,17.41-31.607
		C968.887,428.936,957.463,420.223,946.083,423.057z"/>
	<path fill="#1E1E1E" stroke="#1E1E1E" d="M408.682,467.089c21.622-15.622,42.653-32.047,64.003-48.032
		c1.712,0.864,3.44,1.727,5.167,2.606c-8.061,4.637-14.91,11.016-22.395,16.455c-23.986,18.592-48.699,36.183-73.109,54.199
		c-44.017,32.441-86.594,66.806-127.672,102.883c5.076-9.773,14.167-16.228,21.925-23.698c18.728-18.349,39.517-34.38,60.124-50.532
		C360.302,502.469,384.394,484.635,408.682,467.089z"/>
	<path fill="#FFFFFF" stroke="#FFFFFF" d="M946.083,423.057c11.379-2.833,22.804,5.879,25.516,16.789
		c4.076,12.834-3.637,29.047-17.41,31.607c-11.667,2.47-22.94-6.894-25.198-18.077C925.704,440.951,933.052,425.89,946.083,423.057z
		"/>
	<path fill="#1E1E1E" stroke="#1E1E1E" d="M1292.294,587.109c5.288-4.97,12.455-7.879,19.743-7.818
		c11.167-0.045,21.759,4.424,31.441,9.652c16.546,9.137,31.32,21.092,45.745,33.229c6.909,6.167,14.758,11.591,19.804,19.531
		c9.182,14.031,13.607,30.607,16.061,47.047c1.697,13.698,2.743,28.138-1.864,41.426c-11.894,31.91-29.016,63.29-56.229,84.67
		c-11.076,8.606-21.38,18.243-33.123,25.971c-3.121,2.243-7.212,2.924-10.046,5.47c-0.151,34.85-0.091,70.457-10.606,104.065
		c-1.637,8.046-5.909,15.501-6.682,23.683c-1.106,0.151-2.182,0.303-3.243,0.439c-1.303-1.258-2.591-2.485-3.849-3.712
		c5.167-12.955,8.652-26.501,12.016-40.017c4.182-19.789,5.061-40.093,5.606-60.26c-0.121-8.44,0.788-16.985-0.303-25.365
		c-10.349-8.44-15.592-21.046-23.865-31.229c-8.076-10.561-18.577-18.819-28.653-27.334c-17.97-15.289-37.077-29.516-52.835-47.184
		c-8.47-9.016-10.546-22.031-9.349-33.926c1.773-17.258,8.591-34.38,20.774-46.926
		C1245.55,634.308,1267.854,609.625,1292.294,587.109 M1307.977,584.624c-7.637,1.015-13.349,6.576-18.607,11.698
		c-22.259,21.198-42.956,43.941-63.957,66.366c-10.425,10.879-16.41,25.456-18.607,40.229c-1.243,10.016-0.955,21.152,5.212,29.653
		c6.015,8.076,13.637,14.773,21.077,21.486c15.577,13.758,32.001,26.531,47.638,40.214c8.667,7.531,16.182,16.349,22.425,25.971
		c4.258,6.258,7.864,13.122,13.455,18.349c3.894,3.864,9.743,1.076,13.682-1.288c12.379-8.061,23.365-18.046,34.926-27.198
		c20.668-16.455,35.32-39.183,46.138-63.003c3.985-9.637,9.046-19.137,10.213-29.638c1.561-16.213-0.788-32.607-5.212-48.199
		c-3.788-12.47-9.016-25.289-19.198-33.926c-17.425-15.137-35.108-30.289-55.275-41.668
		C1331.569,588.079,1319.977,582.927,1307.977,584.624z"/>
	<path fill="#EF8B8B" stroke="#EF8B8B" d="M1307.977,584.624c12-1.697,23.592,3.455,33.91,9.046
		c20.167,11.379,37.85,26.531,55.275,41.668c10.182,8.637,15.41,21.455,19.198,33.926c4.424,15.592,6.773,31.986,5.212,48.199
		c-1.167,10.5-6.228,20.001-10.213,29.638c-10.819,23.819-25.471,46.547-46.138,63.003c-11.561,9.152-22.546,19.137-34.926,27.198
		c-3.94,2.364-9.788,5.152-13.682,1.288c-5.591-5.228-9.198-12.091-13.455-18.349c-6.243-9.622-13.758-18.44-22.425-25.971
		c-15.637-13.682-32.062-26.456-47.638-40.214c-7.44-6.712-15.061-13.41-21.077-21.486c-6.167-8.5-6.455-19.637-5.212-29.653
		c2.197-14.773,8.182-29.35,18.607-40.229c21.001-22.425,41.699-45.169,63.957-66.366
		C1294.628,591.2,1300.34,585.639,1307.977,584.624 M1394.511,692.325c-5.864,2.591-9.243,8.47-11.667,14.091
		c-4.091,9.773-7.303,19.865-11.319,29.653c-2.939,7.394-5.758,16.107-1.682,23.653c1.561,3.076,4.379,7.424,8.47,5.94
		c4.667-2.394,7.076-7.44,9.485-11.834c5.97-12.273,10.576-25.153,14.758-38.108c1.864-6.97,4.485-14.395,2.576-21.607
		C1403.602,689.598,1397.799,690.75,1394.511,692.325 M1235.383,708.947c-3.152,5.031-2.531,11.485-1.273,17.016
		c3.318,11.591,11.061,21.849,21.016,28.607c3.955,2.849,9.167,3.864,13.743,1.788c10.879-4.379,19.683-12.546,27.895-20.683
		c-12.379-12.394-26.91-23.258-43.608-28.925C1247.429,705.174,1239.55,703.508,1235.383,708.947z"/>
	<path stroke="#000000" d="M1394.511,692.325c3.288-1.576,9.091-2.727,10.622,1.788c1.909,7.212-0.712,14.637-2.576,21.607
		c-4.182,12.955-8.788,25.834-14.758,38.108c-2.409,4.394-4.818,9.44-9.485,11.834c-4.091,1.485-6.909-2.864-8.47-5.94
		c-4.076-7.546-1.258-16.258,1.682-23.653c4.015-9.788,7.228-19.88,11.319-29.653
		C1385.268,700.795,1388.647,694.916,1394.511,692.325z"/>
	<path stroke="#000000" d="M1235.383,708.947c4.167-5.44,12.046-3.773,17.773-2.197c16.698,5.667,31.229,16.531,43.608,28.925
		c-8.213,8.137-17.016,16.304-27.895,20.683c-4.576,2.076-9.788,1.061-13.743-1.788c-9.955-6.758-17.698-17.016-21.016-28.607
		C1232.853,720.433,1232.231,713.978,1235.383,708.947z"/>
	<path stroke="#000000" d="M1306.537,974.034c10.698-1.606,21.046-4.864,31.335-8.152c-8,5.015-16.288,9.773-23.016,16.486
		c-11.516,11.213-20.561,24.986-34.032,34.123c-10.622,8.849-25.168,10.258-38.441,9.122c-18.137-1.712-35.986-7.531-51.275-17.47
		c-8.091-5.167-18.41-9.182-27.713-4.803c7.788-8.258,15.592-16.607,24.577-23.622c8.955-6.031,19.743-8.531,30.244-10.334
		c18.955-2.833,38.699-2.546,57.108,3.243c9.016,2.833,18.637,2.727,27.971,1.849
		C1304.356,974.337,1305.431,974.185,1306.537,974.034z"/>
	<path fill="#1D1D1D" stroke="#1D1D1D" d="M1423.194,1031.43c1.333-8.819,1.682-17.789,3.758-26.471
		c0.455,14.879-2.742,29.562-4.046,44.335c-4.682,38.002-8.622,76.215-16.849,113.656c-15.879,55.381-24.668,113.005-47.381,166.264
		c-3.864,8.546-7.319,17.455-13.182,24.91c4.485-11.773,9.773-23.243,13.213-35.395c10.546-35.82,22.425-71.26,32.153-107.323
		c8.788-29.728,14.182-60.305,19.804-90.761C1416.163,1091.099,1419.466,1061.219,1423.194,1031.43z"/>
	<path fill="#181818" stroke="#181818" d="M125.322,1386.748c6.515,5.576,10.425,13.349,15.637,20.016
		c5.667,8.182,12.41,15.682,16.91,24.637c-7.925-6.015-13.637-14.319-19.38-22.289
		C133.868,1401.809,128.065,1395.082,125.322,1386.748z"/>
	<path fill="#1C1C1C" stroke="#1C1C1C" d="M1251.535,1430.856c0.424,4.485,3.712,9.213,2.258,13.622
		c-11.182,13.364-22.213,27.001-35.426,38.456c-41.32,36.017-87.261,66.336-134.566,93.852
		c4.818,13.137,10.682,26.471,10.394,40.759c-0.167,2.046,0.333,4.985-2.545,5.167c-7.773,1.424-15.728,0.364-23.547,0.546
		c-58.078,0.091-116.156-0.227-174.234,0.288c-14.167,0.03-28.274-1.515-42.426-1.349c-40.38-1.258-80.594-5.485-120.914-7.773
		c0.894,2.894,1.803,5.803,2.727,8.728c-71.564,0.121-143.127,0.303-214.675-0.091c-0.894-3.318-1.803-6.621-2.682-9.91
		c-7.425-1.318-14.94-2.015-22.456-2.561c-20.531-1.803-41.093-4-61.73-3.651c-29.789,0.333-60.26-5.106-86.534-19.622
		c5.682,1.894,11.561,3.137,17.576,3.303c11.94,3.606,23.819,7.667,36.259,9.197c17.334,2.682,34.926,1.44,52.381,2.47
		c22.243,0.879,44.32,3.818,66.503,5.394c3.576-19.077,12.091-36.774,21.88-53.351c5.864-10.031,14.91-17.728,24.622-23.88
		c15.561-9.682,33.759-15.44,52.154-15.379c23.137-0.197,45.32,11.213,60.29,28.531c10.682,12.713,19.728,26.698,29.683,39.986
		c6.409,8.182,11.622,17.425,18.789,24.971c51.502,4.137,103.095,8.682,154.825,9.228c16.198-22.304,32.274-44.699,48.547-66.957
		c12.5-16.955,30.668-30.441,51.669-34.335c28.107-5.212,57.805,4.712,79.125,23.259c10.197,8.576,15.803,20.925,21.94,32.441
		c38.532-21.698,75.488-46.259,110.368-73.458c17.001-13.622,34.304-27.395,47.684-44.775c3.743-4.924,8.607-8.909,12.198-13.94
		C1251.944,1436.962,1251.656,1433.886,1251.535,1430.856 M554.81,1543.588c-8.485,7.182-13.682,17.182-18.773,26.849
		c-7.515,14.652-13.607,30.411-14.698,47.002c22.622,1.167,45.305,0.182,67.957,0.5c45.169-0.212,90.352,0.439,135.521-0.318
		c-9.773-15.47-21.258-29.789-31.789-44.744c-8.606-11.5-16.228-23.971-27.138-33.517c-12.682-11.379-29.213-18.592-46.305-19.228
		C596.039,1519.193,572.568,1528.284,554.81,1543.588 M972.751,1523.602c-16.97,5.273-31.016,17.304-41.38,31.456
		c-15.091,20.834-30.441,41.502-45.169,62.578c23.743,0.697,47.517,0.106,71.291,0.303c44.108-0.121,88.216,0.242,132.324-0.182
		c-0.576-20.455-9.985-39.29-19.607-56.881c-7.455-14.425-20.955-24.622-35.335-31.501
		C1015.753,1520.238,993.161,1516.844,972.751,1523.602z"/>
	<path fill="#9A653B" stroke="#9A653B" d="M554.81,1543.588c17.758-15.304,41.229-24.395,64.775-23.456
		c17.092,0.636,33.623,7.849,46.305,19.228c10.91,9.546,18.531,22.016,27.138,33.517c10.531,14.955,22.016,29.274,31.789,44.744
		c-45.169,0.758-90.352,0.106-135.521,0.318c-22.652-0.318-45.335,0.667-67.957-0.5c1.091-16.591,7.182-32.35,14.698-47.002
		C541.127,1560.77,546.324,1550.77,554.81,1543.588z"/>
	<path fill="#9A653B" stroke="#9A653B" d="M972.751,1523.602c20.41-6.758,43.002-3.364,62.124,5.773
		c14.38,6.879,27.88,17.076,35.335,31.501c9.622,17.592,19.031,36.426,19.607,56.881c-44.108,0.424-88.216,0.06-132.324,0.182
		c-23.774-0.197-47.547,0.394-71.291-0.303c14.728-21.077,30.077-41.744,45.169-62.578
		C941.735,1540.906,955.781,1528.875,972.751,1523.602z"/>
</g>
</svg>
